<mxfile host="app.diagrams.net" modified="2020-06-11T11:48:06.284Z" agent="5.0 (Windows NT 10.0; Win64; x64) AppleWebKit/537.36 (KHTML, like Gecko) Chrome/83.0.4103.97 Safari/537.36" etag="R7dxswtQfepkhZ1yQqNK" version="13.2.1" type="github">
  <diagram id="WKfAhB0CraHbjWPpqO8Q" name="Page-1">
    <mxGraphModel dx="838" dy="474" grid="1" gridSize="10" guides="1" tooltips="1" connect="1" arrows="1" fold="1" page="1" pageScale="1" pageWidth="1100" pageHeight="850" math="0" shadow="0">
      <root>
        <mxCell id="0" />
        <mxCell id="1" parent="0" />
        <mxCell id="Pt2Ez_J11qLPEV9Ji69k-5" style="edgeStyle=orthogonalEdgeStyle;rounded=0;orthogonalLoop=1;jettySize=auto;html=1;exitX=0.5;exitY=1;exitDx=0;exitDy=0;entryX=0.5;entryY=0;entryDx=0;entryDy=0;" edge="1" parent="1" source="Pt2Ez_J11qLPEV9Ji69k-1" target="Pt2Ez_J11qLPEV9Ji69k-2">
          <mxGeometry relative="1" as="geometry" />
        </mxCell>
        <mxCell id="Pt2Ez_J11qLPEV9Ji69k-1" value="&lt;br&gt;APPICATION LOAD BALANCER" style="rounded=0;whiteSpace=wrap;html=1;fillColor=#dae8fc;strokeColor=#6c8ebf;" vertex="1" parent="1">
          <mxGeometry x="360" y="150" width="360" height="60" as="geometry" />
        </mxCell>
        <mxCell id="Pt2Ez_J11qLPEV9Ji69k-30" style="edgeStyle=orthogonalEdgeStyle;rounded=0;orthogonalLoop=1;jettySize=auto;html=1;exitX=0.25;exitY=1;exitDx=0;exitDy=0;entryX=0.604;entryY=-0.072;entryDx=0;entryDy=0;entryPerimeter=0;" edge="1" parent="1" source="Pt2Ez_J11qLPEV9Ji69k-2" target="Pt2Ez_J11qLPEV9Ji69k-9">
          <mxGeometry relative="1" as="geometry" />
        </mxCell>
        <mxCell id="Pt2Ez_J11qLPEV9Ji69k-31" style="edgeStyle=orthogonalEdgeStyle;rounded=0;orthogonalLoop=1;jettySize=auto;html=1;exitX=0.75;exitY=1;exitDx=0;exitDy=0;entryX=0.5;entryY=0;entryDx=0;entryDy=0;" edge="1" parent="1" source="Pt2Ez_J11qLPEV9Ji69k-2" target="Pt2Ez_J11qLPEV9Ji69k-10">
          <mxGeometry relative="1" as="geometry" />
        </mxCell>
        <mxCell id="Pt2Ez_J11qLPEV9Ji69k-36" style="edgeStyle=orthogonalEdgeStyle;rounded=0;orthogonalLoop=1;jettySize=auto;html=1;exitX=0;exitY=1;exitDx=0;exitDy=0;entryX=0.625;entryY=-0.072;entryDx=0;entryDy=0;entryPerimeter=0;" edge="1" parent="1" source="Pt2Ez_J11qLPEV9Ji69k-2" target="Pt2Ez_J11qLPEV9Ji69k-7">
          <mxGeometry relative="1" as="geometry">
            <Array as="points">
              <mxPoint x="500" y="290" />
              <mxPoint x="500" y="320" />
              <mxPoint x="334" y="320" />
            </Array>
          </mxGeometry>
        </mxCell>
        <mxCell id="Pt2Ez_J11qLPEV9Ji69k-37" style="edgeStyle=orthogonalEdgeStyle;rounded=0;orthogonalLoop=1;jettySize=auto;html=1;exitX=1;exitY=1;exitDx=0;exitDy=0;entryX=0.5;entryY=0;entryDx=0;entryDy=0;" edge="1" parent="1" source="Pt2Ez_J11qLPEV9Ji69k-2" target="Pt2Ez_J11qLPEV9Ji69k-8">
          <mxGeometry relative="1" as="geometry">
            <Array as="points">
              <mxPoint x="580" y="290" />
              <mxPoint x="580" y="320" />
              <mxPoint x="755" y="320" />
            </Array>
          </mxGeometry>
        </mxCell>
        <mxCell id="Pt2Ez_J11qLPEV9Ji69k-2" value="TARGET GROUP" style="rounded=0;whiteSpace=wrap;html=1;fillColor=#ffe6cc;strokeColor=#d79b00;" vertex="1" parent="1">
          <mxGeometry x="480" y="230" width="120" height="60" as="geometry" />
        </mxCell>
        <mxCell id="Pt2Ez_J11qLPEV9Ji69k-4" value="AUTOSCALING GROUP" style="rounded=0;whiteSpace=wrap;html=1;fillColor=#fff2cc;strokeColor=#d6b656;" vertex="1" parent="1">
          <mxGeometry x="290" y="490" width="500" height="60" as="geometry" />
        </mxCell>
        <mxCell id="Pt2Ez_J11qLPEV9Ji69k-17" style="edgeStyle=orthogonalEdgeStyle;rounded=0;orthogonalLoop=1;jettySize=auto;html=1;exitX=0.5;exitY=1;exitDx=0;exitDy=0;entryX=0.071;entryY=-0.069;entryDx=0;entryDy=0;entryPerimeter=0;" edge="1" parent="1" source="Pt2Ez_J11qLPEV9Ji69k-7" target="Pt2Ez_J11qLPEV9Ji69k-4">
          <mxGeometry relative="1" as="geometry" />
        </mxCell>
        <mxCell id="Pt2Ez_J11qLPEV9Ji69k-7" value="EC2" style="rounded=0;whiteSpace=wrap;html=1;fillColor=#d5e8d4;strokeColor=#82b366;shadow=1;" vertex="1" parent="1">
          <mxGeometry x="290" y="380" width="70" height="60" as="geometry" />
        </mxCell>
        <mxCell id="Pt2Ez_J11qLPEV9Ji69k-22" style="edgeStyle=orthogonalEdgeStyle;rounded=0;orthogonalLoop=1;jettySize=auto;html=1;exitX=0.5;exitY=1;exitDx=0;exitDy=0;entryX=0.931;entryY=-0.014;entryDx=0;entryDy=0;entryPerimeter=0;" edge="1" parent="1" source="Pt2Ez_J11qLPEV9Ji69k-8" target="Pt2Ez_J11qLPEV9Ji69k-4">
          <mxGeometry relative="1" as="geometry" />
        </mxCell>
        <mxCell id="Pt2Ez_J11qLPEV9Ji69k-8" value="EC2" style="rounded=0;whiteSpace=wrap;html=1;fillColor=#d5e8d4;strokeColor=#82b366;shadow=1;" vertex="1" parent="1">
          <mxGeometry x="720" y="380" width="70" height="60" as="geometry" />
        </mxCell>
        <mxCell id="Pt2Ez_J11qLPEV9Ji69k-18" style="edgeStyle=orthogonalEdgeStyle;rounded=0;orthogonalLoop=1;jettySize=auto;html=1;exitX=0.5;exitY=1;exitDx=0;exitDy=0;entryX=0.291;entryY=-0.028;entryDx=0;entryDy=0;entryPerimeter=0;" edge="1" parent="1" source="Pt2Ez_J11qLPEV9Ji69k-9" target="Pt2Ez_J11qLPEV9Ji69k-4">
          <mxGeometry relative="1" as="geometry" />
        </mxCell>
        <mxCell id="Pt2Ez_J11qLPEV9Ji69k-9" value="EC2" style="rounded=0;whiteSpace=wrap;html=1;fillColor=#d5e8d4;strokeColor=#82b366;shadow=1;" vertex="1" parent="1">
          <mxGeometry x="400" y="380" width="70" height="60" as="geometry" />
        </mxCell>
        <mxCell id="Pt2Ez_J11qLPEV9Ji69k-21" style="edgeStyle=orthogonalEdgeStyle;rounded=0;orthogonalLoop=1;jettySize=auto;html=1;exitX=0.5;exitY=1;exitDx=0;exitDy=0;entryX=0.711;entryY=-0.028;entryDx=0;entryDy=0;entryPerimeter=0;" edge="1" parent="1" source="Pt2Ez_J11qLPEV9Ji69k-10" target="Pt2Ez_J11qLPEV9Ji69k-4">
          <mxGeometry relative="1" as="geometry" />
        </mxCell>
        <mxCell id="Pt2Ez_J11qLPEV9Ji69k-10" value="EC2" style="rounded=0;whiteSpace=wrap;html=1;fillColor=#d5e8d4;strokeColor=#82b366;shadow=1;" vertex="1" parent="1">
          <mxGeometry x="610" y="380" width="70" height="60" as="geometry" />
        </mxCell>
        <mxCell id="Pt2Ez_J11qLPEV9Ji69k-23" value="&lt;b&gt;2 : 4&lt;/b&gt;" style="text;html=1;strokeColor=#b85450;fillColor=#f8cecc;align=center;verticalAlign=middle;whiteSpace=wrap;rounded=0;" vertex="1" parent="1">
          <mxGeometry x="500" y="410" width="80" height="20" as="geometry" />
        </mxCell>
        <mxCell id="Pt2Ez_J11qLPEV9Ji69k-24" value="" style="endArrow=none;html=1;fillColor=#f8cecc;strokeColor=#b85450;" edge="1" parent="1">
          <mxGeometry width="50" height="50" relative="1" as="geometry">
            <mxPoint x="290" y="450" as="sourcePoint" />
            <mxPoint x="470" y="450" as="targetPoint" />
          </mxGeometry>
        </mxCell>
        <mxCell id="Pt2Ez_J11qLPEV9Ji69k-25" value="" style="endArrow=none;html=1;fillColor=#f8cecc;strokeColor=#b85450;" edge="1" parent="1">
          <mxGeometry width="50" height="50" relative="1" as="geometry">
            <mxPoint x="610" y="450" as="sourcePoint" />
            <mxPoint x="790" y="450" as="targetPoint" />
          </mxGeometry>
        </mxCell>
        <mxCell id="Pt2Ez_J11qLPEV9Ji69k-26" value="AZ1" style="text;html=1;strokeColor=#b85450;fillColor=#f8cecc;align=center;verticalAlign=middle;whiteSpace=wrap;rounded=0;shadow=1;" vertex="1" parent="1">
          <mxGeometry x="360" y="450" width="40" height="20" as="geometry" />
        </mxCell>
        <mxCell id="Pt2Ez_J11qLPEV9Ji69k-28" value="AZ2" style="text;html=1;strokeColor=#b85450;fillColor=#f8cecc;align=center;verticalAlign=middle;whiteSpace=wrap;rounded=0;shadow=1;" vertex="1" parent="1">
          <mxGeometry x="680" y="450" width="40" height="20" as="geometry" />
        </mxCell>
      </root>
    </mxGraphModel>
  </diagram>
</mxfile>
